<?xml version="1.0" encoding="utf-8"?>
<!-- Generator: Adobe Illustrator 21.0.2, SVG Export Plug-In . SVG Version: 6.00 Build 0)  -->
<!DOCTYPE svg PUBLIC "-//W3C//DTD SVG 1.1//EN" "http://www.w3.org/Graphics/SVG/1.1/DTD/svg11.dtd">
<svg version="1.1" id="Layer_1" xmlns="http://www.w3.org/2000/svg" xmlns:xlink="http://www.w3.org/1999/xlink" x="0px" y="0px"
	 viewBox="0 0 342 184" enable-background="new 0 0 342 184" xml:space="preserve">
<g>
	<path d="M25.7,34.8c2.1-3.8,5.7-6.8,11.4-6.8c5.8,0,11,3.5,11,13.9c0,7.9-2.2,15.5-6.3,20.3c-3.5,4-8.6,6.1-14.1,6.1
		c-4.1,0-9-1-12.2-2.2l6.1-52l-5.8,0.6c0-0.8,0.7-3.4,1.4-4.1c1.9-1,4.6-1.8,7.8-1.8c0.8,0,2.6,0.2,3.3,0.3l-1.2,11.6
		c-0.4,3.8-1.4,10.3-2.3,14H25.7z M22.5,62.6c1.4,0.6,3.4,1,5.4,1c3.8,0,7.1-1.3,9.3-3.9c3-3.7,4.1-9.8,4.1-15.8
		c0-6.7-2.2-10.4-7.3-10.4c-3.5,0-7.4,3.4-9,6.5L22.5,62.6z"/>
	<path d="M52.5,34.2c0-0.8,0.6-3.3,1.3-4c1.4-1,4.7-1.7,7.6-1.7c1,0,2.1,0.2,2.9,0.4l5,23c0.5,2.2,1,6.9,1.1,9.8H71
		c4.6-8.7,8.7-18.2,11.4-27c0-0.2-0.2-1-0.3-1.4l-6.4,0.6c0.1-1.2,0.8-3.4,1.8-4.3c1.9-0.9,7.2-1.6,9-1.6c1.4,1.4,2.6,4.2,2.6,5.3
		c-5,13.5-14.5,31.8-19.4,38.8c-5,7-10,11-15.9,13.6c-0.9-1.4-1.8-4.1-1.8-6.1c5.7-1.8,11.1-5.1,14.6-11l-8.2-35L52.5,34.2z"/>
	<path d="M25.5,105.4c-2.5-0.1-6.3-0.4-8.1-0.8c-0.3-1.4-0.4-4.8-0.2-6.3h50.3v16.5c-2,0-4.4-0.2-6.4-0.8c-0.5-2.3-1.2-6.5-1.4-9
		h-24v28.8h19.1c0.1-1.4,0.7-4.6,1.1-6c1.4-0.4,4.3-0.9,6.3-0.9v20.5c-1.9,0.2-4.6,0-6.4-0.4c-0.4-2-0.9-4.8-1-6.5H35.6v27.1
		c3.5,0.2,7.8,0.6,10.9,1.1c0.4,1.3,0.6,4.7,0.3,6H15.6c0.1-1.7,0.8-4.3,1.3-5.8c2-0.5,6.2-1.2,8.6-1.4V105.4z"/>
	<path d="M83.1,149.9c0.2,11.8,7.6,19,17.9,19c4.7,0,11.3-1.5,15.4-3.1c0.2,1.7-0.4,4.6-1.4,6.3c-4,2.2-10.6,4.5-17.4,4.5
		c-15.7,0-24.8-11.8-24.8-27c0-16.2,10-29,25.4-29c13.2,0,18.8,9.6,18.8,23.4c0,1.9-0.1,3.9-0.3,5.8H83.1z M107.3,143.5
		c0.8-7.6-1.4-16.8-10.7-16.8c-7.8,0-12.9,6.8-13.5,16.8H107.3z"/>
	<path d="M125.8,101.7c0.1-1.9,0.9-4.2,2-5.8c2.5-0.9,6.3-1.5,9.9-1.5c2,0,4,0.2,5.6,0.7v72.9c2.8,0.2,6.6,0.9,8.9,1.5
		c0.2,0.9,0.3,2.2,0.3,3.4c0,0.7,0,1.2-0.1,1.9h-27.3c0.2-1.7,0.8-3.5,1.5-5c1.8-0.8,4.8-1.6,7-2.1v-66H125.8z"/>
	<path d="M176.9,168c2.8,0.2,6,0.8,8,1.4c0.3,1.3,0.4,3.7,0.2,5.3h-26.4c0.2-1.7,0.8-3.5,1.5-5c1.8-0.8,4.8-1.6,7-2.1v-39h-8
		c0.1-1.9,0.9-4.2,2-5.8c2.3-0.9,5.8-1.5,9.1-1.5c1.9,0,3.6,0.2,5.2,0.7v8h1.1c2-3.7,7.7-9.3,17.4-9.3c6.7,0,12.5,1.9,14.6,10h0.5
		c1.9-4.1,7.8-10,17.7-10c8.6,0,16.2,2.8,16.2,19.8c0,9.4-0.2,18.6-0.7,27.6c3,0.2,6.7,0.8,8.9,1.4c0.2,0.9,0.3,2.2,0.3,3.4
		c0,0.7,0,1.2-0.1,1.9h-26.1c0.2-1.7,0.8-3.5,1.5-5c1.7-0.8,4.4-1.6,6.3-2.1v-25.7c0-8.5-2.5-13.9-10.1-13.9c-5.6,0-11.1,4.1-13.4,7
		v32.8c2.8,0.2,6.1,0.9,8,1.5c0.3,1.3,0.4,3.7,0.2,5.3h-25.4c0.2-1.7,0.8-3.5,1.5-5c1.7-0.8,4.4-1.6,6.3-2.1v-25.7
		c0-8.5-2.5-13.9-10.1-13.9c-5.5,0-11.1,4-13.4,7V168z"/>
	<path d="M289.7,168.2c-2.9,5.4-8.8,8.4-15.4,8.4c-8,0-15.6-4.6-15.6-14.7c0-11.3,9.6-17.2,20.5-17.2c3.5,0,7.5,0.7,10.2,1.9v-5.9
		c0-8.1-3.5-12.3-10.5-12.3c-4.7,0-12.2,2.8-16.1,5.4c-0.4-1-0.5-2.3-0.5-3.7c0-2.1,0.5-4.4,1.2-5.5c3.6-2.1,12.1-3.8,17.9-3.8
		c12,0,17.3,5.8,17.3,20.9v21.3c0,2.2,0.5,4.8,1.4,5.7c1.7,0,5.5-0.7,7.6-1.3c0.1,0.4,0.1,0.9,0.1,1.2c0,1.8-0.4,3.6-1.1,5
		c-2.4,1.5-8.1,3.2-11.9,3.2c-2.2-1.3-4.3-4.8-4.6-8.4H289.7z M289.5,151.4c-2.1-0.5-5.5-0.9-7.7-0.9c-8.6,0-13.4,3.8-13.4,9.7
		c0,6.1,4.7,8.8,10,8.8c4.3,0,8.9-2.1,11.1-5.4V151.4z"/>
	<path d="M332.1,168.8c0,4.7-2.9,7.3-6.8,7.3c-4.6,0-7-2.4-7-7.3c0-4,3-6.7,7-6.7C329.3,162.1,332.1,164.5,332.1,168.8z"/>
</g>
</svg>
